# Blender 3.5.1
# www.blender.org
o caixa
v -0.050166 0.060560 0.053906
v 0.045601 0.060560 0.054453
v -0.049542 0.060560 -0.054797
v 0.046224 0.060560 -0.054254
v 0.021658 0.060560 0.054316
v -0.002283 0.060560 0.054178
v -0.026222 0.060560 0.054044
v -0.025599 0.060560 -0.054656
v -0.001659 0.060560 -0.054526
v 0.022279 0.060560 -0.054388
v 0.066681 -0.069052 0.067448
v 0.067451 -0.069052 -0.066681
v 0.066681 0.065082 0.067448
v 0.067451 0.065082 -0.066681
v -0.067451 0.065082 0.066681
v -0.066681 0.065082 -0.067448
v -0.067451 -0.069052 0.066681
v -0.066681 -0.069052 -0.067448
v 0.066796 0.045859 0.047615
v 0.067341 0.045859 -0.047244
v -0.066792 0.045859 -0.048014
v -0.067336 0.045859 0.046845
v 0.066796 -0.049415 0.047615
v 0.067341 -0.049415 -0.047244
v -0.066792 -0.049415 -0.048014
v -0.067336 -0.049415 0.046845
v -0.047038 0.065082 0.046962
v -0.046494 0.065082 -0.047894
v -0.046383 0.045859 -0.067335
v -0.046383 -0.049415 -0.067335
v -0.047151 -0.049415 0.066798
v -0.047151 0.045859 0.066798
v 0.045466 0.065082 0.047492
v 0.046010 0.065082 -0.047368
v 0.046121 0.045859 -0.066805
v 0.046121 -0.049415 -0.066805
v 0.045352 -0.049415 0.067332
v 0.045352 0.045859 0.067332
v -0.000308 0.009957 -0.000120
v 0.061857 0.054619 -0.047612
v 0.061308 0.054618 0.048152
v 0.061857 -0.054085 -0.047612
v 0.061308 -0.054088 0.048152
v 0.061445 0.054619 0.024208
v 0.061582 0.054619 0.000268
v 0.061720 0.054619 -0.023672
v 0.061720 -0.054085 -0.023672
v 0.061582 -0.054087 0.000268
v 0.061445 -0.054089 0.024208
v 0.056209 -0.047619 0.062169
v 0.056207 0.048150 0.062175
v -0.052494 -0.047619 0.061549
v -0.052495 0.048150 0.061549
v 0.056209 0.024207 0.062169
v 0.056209 0.000265 0.062169
v 0.056209 -0.023675 0.062169
v -0.052494 -0.023675 0.061549
v -0.052495 0.000265 0.061549
v -0.052497 0.024205 0.061549
v -0.059798 0.054619 0.049507
v -0.059248 0.054618 -0.046257
v -0.059798 -0.054085 0.049507
v -0.059248 -0.054088 -0.046257
v -0.059384 0.054619 -0.022317
v -0.059524 0.054619 0.001627
v -0.059662 0.054619 0.025564
v -0.059662 -0.054085 0.025564
v -0.059524 -0.054087 0.001627
v -0.059384 -0.054089 -0.022317
v 0.055148 0.048151 -0.062685
v 0.055148 -0.047618 -0.062685
v -0.053553 0.048151 -0.063304
v -0.053555 -0.047618 -0.063311
v 0.055148 -0.023675 -0.062685
v 0.055148 0.000267 -0.062685
v 0.055148 0.024207 -0.062685
v -0.053553 0.024207 -0.063304
v -0.053555 0.000267 -0.063311
v -0.053557 -0.023673 -0.063311
v 0.046383 -0.069052 0.046917
v 0.046919 -0.069052 -0.046383
v -0.046919 -0.069052 0.046383
v -0.046383 -0.069052 -0.046917
v 0.000000 0.009957 0.000000
v -0.048189 -0.064717 -0.054084
v 0.047575 -0.064168 -0.054083
v -0.048189 -0.064717 0.054620
v 0.047575 -0.064168 0.054623
v 0.023631 -0.064305 -0.054084
v -0.000309 -0.064442 -0.054084
v -0.024249 -0.064579 -0.054084
v -0.024249 -0.064579 0.054620
v -0.000309 -0.064442 0.054622
v 0.023631 -0.064305 0.054624
v -0.026222 0.062098 0.054044
v -0.025599 0.062098 -0.054656
v 0.022279 0.062098 -0.054388
v 0.021658 0.062098 0.054316
v 0.045601 0.062098 0.054453
v 0.046224 0.062098 -0.054254
v -0.002283 0.062098 0.054178
v -0.001659 0.062098 -0.054526
v 0.063258 0.054619 -0.023663
v 0.063258 -0.054085 -0.023663
v 0.062984 -0.054089 0.024217
v 0.062984 0.054619 0.024217
v 0.062846 0.054618 0.048161
v 0.062846 -0.054088 0.048161
v 0.063121 0.054619 0.000277
v 0.063121 -0.054087 0.000277
v 0.056200 -0.023675 0.063707
v -0.052503 -0.023675 0.063088
v -0.052506 0.024205 0.063088
v 0.056200 0.024207 0.063707
v 0.056198 0.048150 0.063714
v -0.052504 0.048150 0.063088
v 0.056200 0.000265 0.063707
v -0.052504 0.000265 0.063088
v -0.061200 0.054619 0.025555
v -0.061200 -0.054085 0.025555
v -0.060923 -0.054089 -0.022325
v -0.060923 0.054619 -0.022325
v -0.060786 0.054618 -0.046265
v -0.060786 -0.054088 -0.046265
v -0.061063 0.054619 0.001618
v -0.061063 -0.054087 0.001618
v 0.055157 0.024207 -0.064223
v -0.053544 0.024207 -0.064842
v -0.053549 -0.023673 -0.064849
v 0.055157 -0.023675 -0.064223
v 0.055157 -0.047618 -0.064223
v -0.053546 -0.047618 -0.064849
v 0.055157 0.000267 -0.064223
v -0.053546 0.000267 -0.064849
v -0.024240 -0.066118 -0.054084
v -0.024240 -0.066118 0.054620
v 0.023640 -0.065844 0.054624
v 0.023640 -0.065844 -0.054084
v 0.047584 -0.065706 -0.054083
v 0.047584 -0.065706 0.054623
v -0.000300 -0.065980 -0.054084
v -0.000300 -0.065980 0.054622
vn -0.0000 1.0000 -0.0000
vn 0.0056 -0.0000 -1.0000
vn -1.0000 -0.0001 -0.0057
vn 1.0000 -0.0000 0.0057
vn 1.0000 -0.0000 0.0058
vn -1.0000 -0.0000 -0.0057
vn -1.0000 -0.0000 -0.0058
vn -0.0058 -0.0000 1.0000
vn -1.0000 0.0001 -0.0057
vn 0.0057 0.0001 -1.0000
vn 0.0057 -0.0001 -1.0000
vn -0.0057 -0.0002 1.0000
vn -0.0057 0.0002 1.0000
vn 0.0058 -0.0000 -1.0000
vn -0.0055 -0.0000 1.0000
vn 0.4703 -0.8825 0.0027
vn 0.5797 -0.0000 -0.8149
vn 0.6611 0.7503 0.0038
vn 0.5716 -0.0000 0.8205
vn -0.6646 0.7472 -0.0038
vn -0.5738 -0.0000 -0.8190
vn -0.4736 -0.8807 -0.0027
vn -0.5845 -0.0000 0.8114
vn 0.7646 0.6444 0.0044
vn 0.0043 0.6516 -0.7586
vn -0.7675 0.6411 -0.0044
vn -0.0043 0.6528 0.7575
vn -0.8207 -0.0000 -0.5714
vn 0.0038 0.7482 -0.6635
vn 0.8248 -0.0000 -0.5654
vn 0.0027 -0.8813 -0.4726
vn 0.8192 -0.0000 0.5735
vn -0.0038 0.7493 0.6622
vn -0.8281 -0.0000 0.5606
vn -0.0027 -0.8820 0.4713
vn -0.0000 -0.0000 -1.0000
vn -0.0057 -0.0000 1.0000
vn 0.0057 -0.0000 -1.0000
vn -1.0000 -0.0057 -0.0000
vn -0.0000 -1.0000 -0.0000
vn -0.0000 1.0000 0.0001
vn -0.0049 -0.5084 0.8611
vn -0.8611 -0.5084 -0.0049
vn 0.0049 -0.5084 -0.8611
vn 0.8611 -0.5084 0.0049
vn 0.0058 -1.0000 -0.0000
vn 0.0057 -1.0000 -0.0000
vn -0.0057 -0.0001 1.0000
vn 1.0000 0.0057 -0.0000
vn -0.0056 -0.0000 1.0000
vn -0.0000 -1.0000 -0.0001
vn -0.0000 -0.0000 1.0000
vn 1.0000 0.0001 0.0057
vn 0.0055 -0.0000 -1.0000
vn -1.0000 -0.0001 -0.0058
vn -0.0001 -0.0000 1.0000
vn -0.0000 -1.0000 0.0001
vt 0.814208 0.206421
vt 0.810821 0.326831
vt 0.814208 0.206421
vt 0.810821 0.326831
vt 0.814208 0.206421
vt 0.810821 0.326831
vt 0.815860 0.104411
vt 0.814208 0.206421
vt 0.810821 0.326831
vt 0.815860 0.104411
vt 0.814208 0.206421
vt 0.810821 0.326831
vt 0.815860 0.104411
vt 0.814208 0.206421
vt 0.810821 0.326831
vt 0.815860 0.104411
vt 0.814208 0.206421
vt 0.815860 0.104411
vt 0.810821 0.326831
vt 0.810821 0.326831
vt 0.814208 0.206421
vt 0.815860 0.104411
vt 0.815860 0.104411
vt 0.815860 0.104411
vt 0.815860 0.104411
vt 0.815860 0.104411
vt 0.815860 0.104411
vt 0.815860 0.104411
vt 0.815860 0.104411
vt 0.815860 0.104411
vt 0.815860 0.104411
vt 0.815860 0.104411
vt 0.815860 0.104411
vt 0.815860 0.104411
vt 0.815860 0.104411
vt 0.815860 0.104411
vt 0.815860 0.104411
vt 0.815860 0.104411
vt 0.815860 0.104411
vt 0.815860 0.104411
vt 0.815860 0.104411
vt 0.815860 0.104411
vt 0.815860 0.104411
vt 0.815860 0.104411
vt 0.815860 0.104411
vt 0.815860 0.104411
vt 0.815860 0.104411
vt 0.815860 0.104411
vt 0.815860 0.104411
vt 0.815860 0.104411
vt 0.815860 0.104411
vt 0.814208 0.206421
vt 0.810821 0.326831
vt 0.814208 0.206421
vt 0.810821 0.326831
vt 0.814208 0.206421
vt 0.815860 0.104411
vt 0.810821 0.326831
vt 0.814208 0.206421
vt 0.810821 0.326831
vt 0.815860 0.104411
vt 0.814208 0.206421
vt 0.815860 0.104411
vt 0.810821 0.326831
vt 0.814208 0.206421
vt 0.815860 0.104411
vt 0.810821 0.326831
vt 0.814208 0.206421
vt 0.815860 0.104411
vt 0.810821 0.326831
vt 0.814208 0.206421
vt 0.815860 0.104411
vt 0.810821 0.326831
vt 0.814208 0.206421
vt 0.810821 0.326831
vt 0.814208 0.206421
vt 0.810821 0.326831
vt 0.814208 0.206421
vt 0.815860 0.104411
vt 0.810821 0.326831
vt 0.814208 0.206421
vt 0.810821 0.326831
vt 0.815860 0.104411
vt 0.814208 0.206421
vt 0.815860 0.104411
vt 0.810821 0.326831
vt 0.814208 0.206421
vt 0.815860 0.104411
vt 0.810821 0.326831
vt 0.814208 0.206421
vt 0.815860 0.104411
vt 0.810821 0.326831
vt 0.814208 0.206421
vt 0.815860 0.104411
vt 0.810821 0.326831
vt 0.814208 0.206421
vt 0.810821 0.326831
vt 0.814208 0.206421
vt 0.810821 0.326831
vt 0.814208 0.206421
vt 0.815860 0.104411
vt 0.810821 0.326831
vt 0.814208 0.206421
vt 0.810821 0.326831
vt 0.815860 0.104411
vt 0.814208 0.206421
vt 0.815860 0.104411
vt 0.810821 0.326831
vt 0.814208 0.206421
vt 0.815860 0.104411
vt 0.810821 0.326831
vt 0.814208 0.206421
vt 0.815860 0.104411
vt 0.810821 0.326831
vt 0.814208 0.206421
vt 0.815860 0.104411
vt 0.810821 0.326831
vt 0.814208 0.206421
vt 0.810821 0.326831
vt 0.814208 0.206421
vt 0.810821 0.326831
vt 0.815860 0.104411
vt 0.814208 0.206421
vt 0.810821 0.326831
vt 0.814208 0.206421
vt 0.810821 0.326831
vt 0.815860 0.104411
vt 0.814208 0.206421
vt 0.815860 0.104411
vt 0.810821 0.326831
vt 0.814208 0.206421
vt 0.815860 0.104411
vt 0.810821 0.326831
vt 0.814208 0.206421
vt 0.815860 0.104411
vt 0.810821 0.326831
vt 0.815860 0.104411
vt 0.814208 0.206421
vt 0.810821 0.326831
vt 0.815860 0.104411
vt 0.815860 0.104411
vt 0.815860 0.104411
vt 0.815860 0.104411
vt 0.815860 0.104411
vt 0.814208 0.206421
vt 0.810821 0.326831
vt 0.814208 0.206421
vt 0.810821 0.326831
vt 0.810821 0.326831
vt 0.815860 0.104411
vt 0.814208 0.206421
vt 0.814208 0.206421
vt 0.810821 0.326831
vt 0.815860 0.104411
vt 0.814208 0.206421
vt 0.815860 0.104411
vt 0.810821 0.326831
vt 0.814208 0.206421
vt 0.815860 0.104411
vt 0.810821 0.326831
vt 0.814208 0.206421
vt 0.815860 0.104411
vt 0.810821 0.326831
vt 0.815860 0.104411
vt 0.814208 0.206421
vt 0.810821 0.326831
vt 0.810821 0.326831
vt 0.815860 0.104411
vt 0.810821 0.326831
vt 0.815860 0.104411
vt 0.815860 0.104411
vt 0.810821 0.326831
vt 0.815860 0.104411
vt 0.810821 0.326831
vt 0.810821 0.326831
vt 0.810821 0.326831
vt 0.810821 0.326831
vt 0.815860 0.104411
vt 0.815860 0.104411
vt 0.810821 0.326831
vt 0.815860 0.104411
vt 0.810821 0.326831
vt 0.815860 0.104411
vt 0.810821 0.326831
vt 0.815860 0.104411
vt 0.810821 0.326831
vt 0.815860 0.104411
vt 0.810821 0.326831
vt 0.810821 0.326831
vt 0.810821 0.326831
vt 0.810821 0.326831
vt 0.815860 0.104411
vt 0.815860 0.104411
vt 0.810821 0.326831
vt 0.815860 0.104411
vt 0.810821 0.326831
vt 0.815860 0.104411
vt 0.810821 0.326831
vt 0.815860 0.104411
vt 0.810821 0.326831
vt 0.815860 0.104411
vt 0.810821 0.326831
vt 0.810821 0.326831
vt 0.810821 0.326831
vt 0.810821 0.326831
vt 0.815860 0.104411
vt 0.815860 0.104411
vt 0.810821 0.326831
vt 0.815860 0.104411
vt 0.810821 0.326831
vt 0.815860 0.104411
vt 0.810821 0.326831
vt 0.815860 0.104411
vt 0.810821 0.326831
vt 0.815860 0.104411
vt 0.810821 0.326831
vt 0.810821 0.326831
vt 0.810821 0.326831
vt 0.810821 0.326831
vt 0.815860 0.104411
vt 0.815860 0.104411
vt 0.810821 0.326831
vt 0.815860 0.104411
vt 0.810821 0.326831
vt 0.815860 0.104411
vt 0.810821 0.326831
vt 0.815860 0.104411
vt 0.810821 0.326831
vt 0.815860 0.104411
vt 0.810821 0.326831
vt 0.810821 0.326831
vt 0.810821 0.326831
vt 0.810821 0.326831
vt 0.815860 0.104411
vt 0.815860 0.104411
vt 0.810821 0.326831
vt 0.815860 0.104411
vt 0.810821 0.326831
vt 0.815860 0.104411
vt 0.810821 0.326831
vt 0.815860 0.104411
vt 0.810821 0.326831
vt 0.815860 0.104411
vt 0.810821 0.326831
vt 0.810821 0.326831
vt 0.810821 0.326831
vt 0.810821 0.326831
vt 0.815860 0.104411
vt 0.815860 0.104411
vt 0.810821 0.326831
s 0
f 1/1/1 7/11/1 8/14/1 3/3/1
f 79/137/1 74/122/1 130/229/1 129/227/1
f 4/4/2 10/20/2 97/172/2 100/176/2
f 6/8/1 5/5/1 10/21/1 9/17/1
f 21/33/3 22/34/3 15/27/3 16/28/3
f 15/27/1 27/39/1 28/40/1 16/28/1
f 13/25/4 19/31/4 20/32/4 14/26/4
f 11/23/5 23/35/5 19/31/5 13/25/5
f 14/26/4 20/32/4 24/36/4 12/24/4
f 29/41/2 30/42/2 18/30/2 16/28/2
f 18/30/6 25/37/6 21/33/6 16/28/6
f 15/27/7 22/34/7 26/38/7 17/29/7
f 17/29/8 31/43/8 32/44/8 15/27/8
f 24/36/4 23/35/4 11/23/4 12/24/4
f 17/29/9 26/38/9 25/37/9 18/30/9
f 13/25/1 33/45/1 27/39/1 15/27/1
f 16/28/1 28/40/1 34/46/1 14/26/1
f 14/26/10 35/47/10 29/41/10 16/28/10
f 36/48/11 12/24/11 18/30/11 30/42/11
f 31/43/12 17/29/12 11/23/12 37/49/12
f 15/27/13 32/44/13 38/50/13 13/25/13
f 34/46/1 33/45/1 13/25/1 14/26/1
f 12/24/14 36/48/14 35/47/14 14/26/14
f 38/50/15 37/49/15 11/23/15 13/25/15
f 20/32/16 19/31/16 39/51/16
f 19/31/17 23/35/17 39/51/17
f 23/35/18 24/36/18 39/51/18
f 24/36/19 20/32/19 39/51/19
f 25/37/20 26/38/20 39/51/20
f 26/38/21 22/34/21 39/51/21
f 22/34/22 21/33/22 39/51/22
f 21/33/23 25/37/23 39/51/23
f 28/40/24 27/39/24 39/51/24
f 27/39/25 33/45/25 39/51/25
f 33/45/26 34/46/26 39/51/26
f 34/46/27 28/40/27 39/51/27
f 35/47/28 36/48/28 39/51/28
f 36/48/29 30/42/29 39/51/29
f 30/42/30 29/41/30 39/51/30
f 29/41/31 35/47/31 39/51/31
f 32/44/32 31/43/32 39/51/32
f 31/43/33 37/49/33 39/51/33
f 37/49/34 38/50/34 39/51/34
f 38/50/35 32/44/35 39/51/35
f 40/52/5 46/62/5 47/65/5 42/54/5
f 89/149/36 86/146/36 139/245/36 138/244/36
f 2/2/4 4/4/4 100/176/4 99/175/4
f 45/59/4 44/56/4 49/71/4 48/68/4
f 50/74/37 56/84/37 57/87/37 52/76/37
f 47/66/38 46/63/38 103/181/38 104/183/38
f 94/164/39 89/150/39 138/243/39 137/241/39
f 55/81/37 54/78/37 59/93/37 58/90/37
f 60/96/6 66/106/6 67/109/6 62/98/6
f 57/88/40 56/85/40 111/195/40 112/197/40
f 5/6/37 2/2/37 99/175/37 98/174/37
f 65/103/7 64/100/7 69/115/7 68/112/7
f 70/118/38 76/128/38 77/131/38 72/120/38
f 67/110/37 66/107/37 119/209/37 120/211/37
f 77/132/41 76/129/41 127/223/41 128/225/41
f 75/125/14 74/123/14 79/138/14 78/134/14
f 11/23/40 17/29/40 82/142/40 80/140/40
f 18/30/40 12/24/40 81/141/40 83/143/40
f 17/29/40 18/30/40 83/143/40 82/142/40
f 12/24/40 11/23/40 80/140/40 81/141/40
f 83/143/42 81/141/42 84/144/42
f 81/141/43 80/140/43 84/144/43
f 80/140/44 82/142/44 84/144/44
f 82/142/45 83/143/45 84/144/45
f 85/145/46 91/155/46 92/158/46 87/147/46
f 10/22/6 5/7/6 98/173/6 97/171/6
f 92/159/39 91/156/39 135/237/39 136/239/39
f 90/152/47 89/151/47 94/165/47 93/161/47
f 97/172/1 98/174/1 99/175/1 100/176/1
f 95/167/1 101/177/1 102/180/1 96/169/1
f 105/186/4 106/188/4 107/189/4 108/190/4
f 103/182/4 109/191/4 110/194/4 104/184/4
f 113/200/48 114/202/48 115/203/48 116/204/48
f 111/196/37 117/205/37 118/208/37 112/198/37
f 121/214/6 122/216/6 123/217/6 124/218/6
f 119/210/6 125/219/6 126/222/6 120/212/6
f 129/228/14 130/230/14 131/231/14 132/232/14
f 127/224/10 133/233/10 134/236/10 128/226/10
f 137/242/47 138/244/47 139/245/47 140/246/47
f 135/238/47 141/247/47 142/250/47 136/240/47
f 86/146/49 88/148/49 140/246/49 139/245/49
f 69/116/37 64/101/37 122/215/37 121/213/37
f 7/12/50 6/9/50 101/177/50 95/167/50
f 59/94/51 54/79/51 114/201/51 113/199/51
f 74/124/5 71/119/5 131/231/5 130/230/5
f 88/148/52 94/166/52 137/242/52 140/246/52
f 49/72/38 44/57/38 106/187/38 105/185/38
f 64/102/1 61/97/1 123/217/1 122/216/1
f 6/10/4 9/18/4 102/179/4 101/178/4
f 54/80/53 51/75/53 115/203/53 114/202/53
f 71/119/40 73/121/40 132/232/40 131/231/40
f 91/157/36 90/153/36 141/247/36 135/238/36
f 44/58/1 41/53/1 107/189/1 106/188/1
f 61/97/38 63/99/38 124/218/38 123/217/38
f 9/19/54 8/15/54 96/169/54 102/180/54
f 51/75/41 53/77/41 116/204/41 115/203/41
f 73/121/55 79/139/55 129/228/55 132/232/55
f 90/154/49 93/162/49 142/249/49 141/248/49
f 41/53/37 43/55/37 108/190/37 107/189/37
f 63/99/40 69/117/40 121/214/40 124/218/40
f 53/77/9 59/95/9 113/200/9 116/204/9
f 76/130/4 75/126/4 133/233/4 127/224/4
f 93/163/56 92/160/56 136/240/56 142/250/56
f 43/55/40 49/73/40 105/186/40 108/190/40
f 66/108/1 65/104/1 125/219/1 119/210/1
f 56/86/4 55/82/4 117/205/4 111/196/4
f 75/127/51 78/135/51 134/235/51 133/234/51
f 46/64/1 45/60/1 109/191/1 103/182/1
f 65/105/38 68/113/38 126/221/38 125/220/38
f 55/83/1 58/91/1 118/207/1 117/206/1
f 78/136/9 77/133/9 128/226/9 134/236/9
f 45/61/37 48/69/37 110/193/37 109/192/37
f 68/114/57 67/111/57 120/212/57 126/222/57
f 58/92/6 57/89/6 112/198/6 118/208/6
f 8/16/6 7/13/6 95/168/6 96/170/6
f 48/70/51 47/67/51 104/184/51 110/194/51
