# Blender 3.5.1
# www.blender.org
o Placa_de_direção
v 0.000000 0.287640 -0.017783
v 0.012574 0.287640 -0.012574
v 0.017783 0.287640 -0.000000
v 0.012574 0.287640 0.012574
v 0.000000 0.287640 0.017783
v -0.012574 0.287640 0.012574
v -0.017783 0.287640 -0.000000
v -0.012574 0.287640 -0.012574
v -0.000000 0.015357 -0.027312
v 0.019312 0.015357 -0.019312
v 0.027312 0.015357 0.000000
v 0.019312 0.015357 0.019312
v -0.000000 0.015357 0.027312
v -0.019312 0.015357 0.019312
v -0.027312 0.015357 0.000000
v -0.019312 0.015357 -0.019312
v 0.000000 -0.023134 -0.036817
v 0.026034 -0.023134 -0.026034
v 0.026034 0.015357 -0.026034
v 0.036817 -0.023134 0.000000
v 0.036817 0.015357 0.000000
v 0.026034 -0.023134 0.026034
v 0.026034 0.015357 0.026034
v 0.000000 -0.023134 0.036817
v 0.000000 0.015357 0.036817
v -0.026034 -0.023134 0.026034
v -0.026034 0.015357 0.026034
v -0.036817 -0.023134 0.000000
v -0.036817 0.015357 0.000000
v -0.026034 -0.023134 -0.026034
v -0.026034 0.015357 -0.026034
v 0.000000 0.015357 -0.036817
v 0.000000 0.108866 -0.019433
v 0.013741 0.108866 -0.013741
v 0.019433 0.108866 0.000000
v 0.013741 0.108866 0.013741
v 0.000000 0.108866 0.019433
v -0.013741 0.108866 0.013741
v -0.019433 0.108866 0.000000
v -0.013741 0.108866 -0.013741
v 0.014167 0.279500 -0.014167
v 0.000000 0.279500 -0.020036
v 0.020036 0.279500 0.000000
v 0.014167 0.279500 0.014167
v 0.000000 0.279500 0.020036
v -0.014167 0.279500 0.014167
v -0.020036 0.279500 0.000000
v -0.014167 0.279500 -0.014167
v -0.030093 0.187966 0.038882
v -0.030238 0.218408 0.038154
v -0.032022 0.187966 0.029202
v -0.032022 0.218550 0.029202
v 0.062835 0.203258 0.015330
v 0.026357 0.187966 0.017568
v 0.026357 0.218550 0.017568
v 0.028286 0.187966 0.027248
v 0.028141 0.218408 0.026520
v -0.001158 0.205458 0.033448
v -0.000436 0.203703 0.033348
v -0.000453 0.207213 0.033264
v 0.003710 0.205458 0.032478
v 0.003006 0.203703 0.032662
v 0.002989 0.207213 0.032578
v 0.001264 0.207940 0.032903
v 0.001288 0.202976 0.033022
v -0.003298 0.205458 0.022710
v -0.002585 0.203703 0.022568
v -0.002585 0.207213 0.022568
v -0.000864 0.207940 0.022225
v 0.000857 0.207213 0.021882
v -0.000864 0.202976 0.022225
v 0.001570 0.205458 0.021740
v 0.000857 0.203703 0.021882
v -0.002653 0.207557 0.013197
v 0.001678 0.207557 0.034928
v -0.001168 0.206929 0.012901
v 0.003162 0.206929 0.034632
v -0.000554 0.205416 0.012779
v 0.003777 0.205416 0.034509
v -0.001168 0.203902 0.012901
v 0.003162 0.203902 0.034632
v -0.002653 0.203275 0.013197
v 0.001678 0.203275 0.034928
v -0.004138 0.203902 0.013493
v 0.000193 0.203902 0.035223
v -0.004753 0.205416 0.013615
v -0.000422 0.205416 0.035346
v -0.004138 0.206929 0.013493
v 0.000193 0.206929 0.035223
v -0.019591 0.202553 0.036426
v -0.021450 0.202621 0.027095
v 0.029974 0.183447 0.041846
v 0.030192 0.153005 0.041137
v 0.032866 0.183447 0.032409
v 0.032866 0.152863 0.032409
v -0.060117 0.168155 0.009078
v -0.024048 0.183447 0.014969
v -0.024048 0.152863 0.014969
v -0.026940 0.183447 0.024406
v -0.026722 0.153005 0.023697
v 0.001732 0.165955 0.033533
v 0.001024 0.167710 0.033360
v 0.001049 0.164200 0.033279
v -0.003014 0.165955 0.032078
v -0.002332 0.167710 0.032332
v -0.002307 0.164200 0.032250
v -0.000623 0.163474 0.032748
v -0.000659 0.168437 0.032863
v 0.004940 0.165955 0.023064
v 0.004244 0.167710 0.022851
v 0.004244 0.164200 0.022851
v 0.002567 0.163474 0.022337
v 0.000889 0.164200 0.021823
v 0.002567 0.168437 0.022337
v 0.000194 0.165955 0.021610
v 0.000889 0.167710 0.021823
v 0.005254 0.163857 0.013534
v -0.001238 0.163857 0.034720
v 0.003807 0.164484 0.013091
v -0.002685 0.164484 0.034277
v 0.003207 0.165997 0.012907
v -0.003285 0.165997 0.034093
v 0.003807 0.167511 0.013091
v -0.002685 0.167511 0.034277
v 0.005254 0.168138 0.013534
v -0.001238 0.168138 0.034720
v 0.006701 0.167511 0.013978
v 0.000209 0.167511 0.035164
v 0.007301 0.165997 0.014162
v 0.000809 0.165997 0.035347
v 0.006701 0.164484 0.013978
v 0.000209 0.164484 0.035164
v 0.019772 0.168860 0.038348
v 0.022560 0.168792 0.029250
v 0.041135 0.254158 0.010032
v 0.040691 0.223716 0.009438
v 0.035219 0.254158 0.002131
v 0.035219 0.223575 0.002131
v -0.038457 0.238867 0.063466
v -0.012429 0.254158 0.037810
v -0.012429 0.223575 0.037810
v -0.006513 0.254158 0.045711
v -0.006957 0.223716 0.045117
v 0.017766 0.236667 0.027938
v 0.017210 0.238422 0.028408
v 0.017159 0.234912 0.028339
v 0.013793 0.236667 0.030913
v 0.014401 0.238422 0.030512
v 0.014349 0.234912 0.030443
v 0.015743 0.234185 0.029377
v 0.015816 0.239149 0.029474
v 0.011204 0.236667 0.019174
v 0.010622 0.238422 0.019610
v 0.010622 0.234912 0.019610
v 0.009217 0.234185 0.020662
v 0.007812 0.234912 0.021714
v 0.009217 0.239149 0.020662
v 0.007231 0.236667 0.022149
v 0.007812 0.238422 0.021714
v 0.003693 0.234568 0.013300
v 0.016974 0.234568 0.031037
v 0.002481 0.235195 0.014208
v 0.015762 0.235195 0.031944
v 0.001979 0.236709 0.014583
v 0.015260 0.236709 0.032320
v 0.002481 0.238223 0.014208
v 0.015762 0.238223 0.031944
v 0.003693 0.238850 0.013300
v 0.016974 0.238850 0.031037
v 0.004905 0.238223 0.012393
v 0.018186 0.238223 0.030129
v 0.005406 0.236709 0.012017
v 0.018688 0.236709 0.029753
v 0.004905 0.235195 0.012393
v 0.018186 0.235195 0.030129
v 0.032294 0.239572 0.016208
v 0.026591 0.239504 0.008592
v -0.042100 0.108610 0.006974
v -0.041630 0.139052 0.006400
v -0.035852 0.108610 -0.000668
v -0.035852 0.139194 -0.000668
v 0.035146 0.123902 0.063747
v 0.010234 0.108610 0.037007
v 0.010234 0.139194 0.037007
v 0.003987 0.108610 0.044649
v 0.004456 0.139052 0.044075
v -0.019514 0.126102 0.025859
v -0.018978 0.124347 0.026352
v -0.018924 0.127857 0.026286
v -0.015671 0.126102 0.029001
v -0.016261 0.124347 0.028574
v -0.016206 0.127857 0.028507
v -0.017554 0.128584 0.027383
v -0.017630 0.123620 0.027477
v -0.012584 0.126102 0.017382
v -0.012021 0.124347 0.017842
v -0.012021 0.127857 0.017842
v -0.010663 0.128584 0.018953
v -0.009304 0.127857 0.020064
v -0.010663 0.123620 0.018953
v -0.008741 0.126102 0.020524
v -0.009304 0.124347 0.020064
v -0.004830 0.128201 0.011833
v -0.018854 0.128201 0.028989
v -0.003658 0.127574 0.012791
v -0.017682 0.127574 0.029947
v -0.003173 0.126060 0.013188
v -0.017197 0.126060 0.030343
v -0.003658 0.124546 0.012791
v -0.017682 0.124546 0.029947
v -0.004830 0.123919 0.011833
v -0.018854 0.123919 0.028989
v -0.006002 0.124546 0.010875
v -0.020026 0.124546 0.028030
v -0.006487 0.126060 0.010478
v -0.020512 0.126060 0.027634
v -0.006002 0.127574 0.010875
v -0.020026 0.127574 0.028030
v -0.033529 0.123197 0.013521
v -0.027507 0.123265 0.006155
vn 0.3824 0.0376 -0.9232
vn 0.3800 0.1190 -0.9173
vn 0.9232 0.0376 -0.3824
vn 0.9173 0.1190 -0.3800
vn 0.9232 0.0376 0.3824
vn 0.9173 0.1190 0.3800
vn 0.3824 0.0376 0.9232
vn 0.3800 0.1190 0.9173
vn -0.3824 0.0376 0.9232
vn -0.3800 0.1190 0.9173
vn -0.9232 0.0376 0.3824
vn -0.9173 0.1190 0.3800
vn -0.0000 1.0000 -0.0000
vn -0.9232 0.0376 -0.3824
vn -0.9173 0.1190 -0.3800
vn -0.3824 0.0376 -0.9232
vn -0.3800 0.1190 -0.9173
vn -0.0000 -1.0000 -0.0000
vn -0.3827 -0.0000 -0.9239
vn -0.9239 -0.0000 -0.3827
vn -0.9239 -0.0000 0.3827
vn -0.3827 -0.0000 0.9239
vn 0.3827 -0.0000 0.9239
vn 0.9239 -0.0000 0.3827
vn 0.9239 -0.0000 -0.3827
vn 0.3827 -0.0000 -0.9239
vn -0.3815 0.0776 -0.9211
vn -0.9211 0.0776 -0.3815
vn -0.9211 0.0776 0.3815
vn -0.3815 0.0776 0.9211
vn 0.3815 0.0776 0.9211
vn 0.9211 0.0776 0.3815
vn 0.9211 0.0776 -0.3815
vn 0.3815 0.0776 -0.9211
vn 0.3708 0.2477 -0.8951
vn 0.8951 0.2477 -0.3708
vn 0.8951 0.2477 0.3708
vn 0.3708 0.2477 0.8951
vn -0.3708 0.2477 0.8951
vn -0.8951 0.2477 0.3708
vn -0.8951 0.2477 -0.3708
vn -0.3708 0.2477 -0.8951
vn -0.8128 -0.5614 0.1556
vn -0.0612 -0.0000 -0.9981
vn 0.2239 0.0244 0.9743
vn 0.1849 0.0244 0.9825
vn 0.3815 -0.9212 -0.0760
vn 0.0030 0.9999 0.0152
vn 0.3827 0.9218 -0.0617
vn 0.3164 0.0242 0.9483
vn -0.1668 -0.0000 -0.9860
vn -0.2059 -0.0000 -0.9786
vn -0.3753 -0.9239 0.0748
vn -0.9061 -0.3827 0.1806
vn -0.9061 0.3827 0.1806
vn -0.3753 0.9239 0.0748
vn 0.3753 0.9239 -0.0748
vn 0.9061 0.3827 -0.1806
vn 0.9061 -0.3827 -0.1806
vn 0.3753 -0.9239 -0.0748
vn 0.1954 -0.0000 0.9807
vn -0.1954 -0.0000 -0.9807
vn -0.7890 0.5934 0.1593
vn 0.7931 0.5614 0.2364
vn 0.1612 -0.0000 -0.9869
vn -0.3207 -0.0244 0.9469
vn -0.2826 -0.0244 0.9589
vn -0.3720 0.9212 -0.1140
vn -0.0045 -0.9999 0.0148
vn -0.3745 -0.9218 -0.0998
vn -0.4101 -0.0242 0.9117
vn 0.2650 -0.0000 -0.9643
vn 0.3032 -0.0000 -0.9529
vn 0.3659 0.9239 0.1121
vn 0.8833 0.3827 0.2707
vn 0.8833 -0.3827 0.2707
vn 0.3659 -0.9239 0.1121
vn -0.3659 -0.9239 -0.1121
vn -0.8833 -0.3827 -0.2707
vn -0.8833 0.3827 -0.2707
vn -0.3659 0.9239 -0.1121
vn -0.2930 -0.0000 0.9561
vn 0.2930 -0.0000 -0.9561
vn 0.7690 -0.5934 0.2378
vn 0.6586 0.5614 -0.5011
vn -0.7020 -0.0000 -0.7122
vn 0.5756 -0.0244 0.8174
vn 0.6077 -0.0244 0.7938
vn -0.3114 0.9212 0.2332
vn 0.0093 -0.9999 0.0124
vn -0.3015 -0.9218 0.2436
vn 0.4945 -0.0242 0.8689
vn -0.6225 -0.0000 -0.7826
vn -0.5908 -0.0000 -0.8068
vn 0.3063 0.9239 -0.2294
vn 0.7395 0.3827 -0.5538
vn 0.7395 -0.3827 -0.5538
vn 0.3063 -0.9239 -0.2294
vn -0.3063 -0.9239 0.2294
vn -0.7395 -0.3827 0.5538
vn -0.7395 0.3827 0.5538
vn -0.3063 0.9239 0.2294
vn 0.5994 -0.0000 0.8005
vn -0.5994 -0.0000 -0.8005
vn 0.6455 -0.5934 -0.4808
vn -0.6367 -0.5614 -0.5286
vn 0.7317 -0.0000 -0.6817
vn -0.6099 0.0244 0.7921
vn -0.6410 0.0244 0.7672
vn 0.3012 -0.9212 0.2462
vn -0.0098 0.9999 0.0120
vn 0.2908 0.9218 0.2562
vn -0.5310 0.0242 0.8470
vn 0.6552 -0.0000 -0.7554
vn 0.6246 -0.0000 -0.7809
vn -0.2963 -0.9239 -0.2422
vn -0.7153 -0.3827 -0.5847
vn -0.7153 0.3827 -0.5847
vn -0.2963 0.9239 -0.2422
vn 0.2963 0.9239 0.2422
vn 0.7153 0.3827 0.5847
vn 0.7153 -0.3827 0.5847
vn 0.2963 -0.9239 0.2422
vn -0.6329 -0.0000 0.7742
vn 0.6329 -0.0000 -0.7742
vn -0.6245 0.5934 -0.5078
vt 0.859292 0.680880
vt 0.863584 0.683636
vt 0.859292 0.680880
vt 0.863584 0.683637
vt 0.859292 0.680880
vt 0.863584 0.683637
vt 0.859292 0.680880
vt 0.863584 0.683637
vt 0.859292 0.680880
vt 0.863584 0.683637
vt 0.859292 0.680880
vt 0.863584 0.683637
vt 0.859292 0.680880
vt 0.863584 0.683637
vt 0.859292 0.680880
vt 0.863584 0.683637
vt 0.885731 0.672563
vt 0.840206 0.683637
vt 0.885731 0.672563
vt 0.840206 0.683637
vt 0.885731 0.672563
vt 0.840206 0.683637
vt 0.885731 0.672563
vt 0.840206 0.683637
vt 0.885731 0.672563
vt 0.840206 0.683637
vt 0.885731 0.672563
vt 0.840206 0.683637
vt 0.885731 0.672563
vt 0.840206 0.683637
vt 0.885731 0.672563
vt 0.840206 0.683637
vt 0.885731 0.672563
vt 0.885731 0.672563
vt 0.885731 0.672563
vt 0.885731 0.672563
vt 0.885731 0.672563
vt 0.885731 0.672563
vt 0.885731 0.672563
vt 0.885731 0.672563
vt 0.885731 0.672563
vt 0.885731 0.672563
vt 0.885731 0.672563
vt 0.885731 0.672563
vt 0.885731 0.672563
vt 0.885731 0.672563
vt 0.885731 0.672563
vt 0.885731 0.672563
vt 0.840206 0.683637
vt 0.840206 0.683637
vt 0.840206 0.683637
vt 0.840206 0.683637
vt 0.840206 0.683637
vt 0.840206 0.683637
vt 0.840206 0.683637
vt 0.840206 0.683637
vt 0.840206 0.683637
vt 0.863584 0.683637
vt 0.840206 0.683637
vt 0.863584 0.683637
vt 0.840206 0.683637
vt 0.863584 0.683637
vt 0.840206 0.683637
vt 0.863584 0.683637
vt 0.840206 0.683637
vt 0.863584 0.683637
vt 0.840206 0.683637
vt 0.863584 0.683637
vt 0.840206 0.683637
vt 0.863584 0.683637
vt 0.840206 0.683637
vt 0.863584 0.683637
vt 0.810876 0.562446
vt 0.810876 0.562446
vt 0.810876 0.562446
vt 0.810876 0.562446
vt 0.810876 0.562446
vt 0.810876 0.562446
vt 0.810876 0.562446
vt 0.810876 0.562446
vt 0.810876 0.562446
vt 0.810876 0.562446
vt 0.810876 0.562446
vt 0.810876 0.562446
vt 0.810876 0.562446
vt 0.810876 0.562446
vt 0.810876 0.562446
vt 0.810876 0.562446
vt 0.810876 0.562446
vt 0.810876 0.562446
vt 0.810876 0.562446
vt 0.810876 0.562446
vt 0.810876 0.562446
vt 0.810876 0.562446
vt 0.810876 0.562446
vt 0.810876 0.562446
vt 0.810876 0.562446
vt 0.867904 0.771929
vt 0.867904 0.771929
vt 0.867904 0.771929
vt 0.867904 0.771929
vt 0.867904 0.771929
vt 0.867904 0.771929
vt 0.867904 0.771929
vt 0.867904 0.771929
vt 0.867904 0.771929
vt 0.867904 0.771929
vt 0.867904 0.771929
vt 0.867904 0.771929
vt 0.867904 0.771929
vt 0.867904 0.771929
vt 0.867904 0.771929
vt 0.867904 0.771929
vt 0.810876 0.562446
vt 0.810876 0.562446
vt 0.815037 0.824873
vt 0.815037 0.824873
vt 0.815037 0.824873
vt 0.815037 0.824873
vt 0.815037 0.824873
vt 0.815037 0.824873
vt 0.815037 0.824873
vt 0.815037 0.824873
vt 0.815037 0.824873
vt 0.815037 0.824873
vt 0.815037 0.824873
vt 0.815037 0.824873
vt 0.815037 0.824873
vt 0.815037 0.824873
vt 0.815037 0.824873
vt 0.815037 0.824873
vt 0.815037 0.824873
vt 0.815037 0.824873
vt 0.815037 0.824873
vt 0.815037 0.824873
vt 0.815037 0.824873
vt 0.815037 0.824873
vt 0.815037 0.824873
vt 0.815037 0.824873
vt 0.815037 0.824873
vt 0.867904 0.771929
vt 0.867904 0.771929
vt 0.867904 0.771929
vt 0.867904 0.771929
vt 0.867904 0.771929
vt 0.867904 0.771929
vt 0.867904 0.771929
vt 0.867904 0.771929
vt 0.867904 0.771929
vt 0.867904 0.771929
vt 0.867904 0.771929
vt 0.867904 0.771929
vt 0.867904 0.771929
vt 0.867904 0.771929
vt 0.867904 0.771929
vt 0.867904 0.771929
vt 0.815037 0.824873
vt 0.815037 0.824873
vt 0.833230 0.716966
vt 0.833230 0.716966
vt 0.833230 0.716966
vt 0.833230 0.716966
vt 0.833230 0.716966
vt 0.833230 0.716966
vt 0.833230 0.716966
vt 0.833230 0.716966
vt 0.833230 0.716966
vt 0.833230 0.716966
vt 0.833230 0.716966
vt 0.833230 0.716966
vt 0.833230 0.716966
vt 0.833230 0.716966
vt 0.833230 0.716966
vt 0.833230 0.716966
vt 0.833230 0.716966
vt 0.833230 0.716966
vt 0.833230 0.716966
vt 0.833230 0.716966
vt 0.833230 0.716966
vt 0.833230 0.716966
vt 0.833230 0.716966
vt 0.833230 0.716966
vt 0.833230 0.716966
vt 0.867904 0.771929
vt 0.867904 0.771929
vt 0.867904 0.771929
vt 0.867904 0.771929
vt 0.867904 0.771929
vt 0.867904 0.771929
vt 0.867904 0.771929
vt 0.867904 0.771929
vt 0.867904 0.771929
vt 0.867904 0.771929
vt 0.867904 0.771929
vt 0.867904 0.771929
vt 0.867904 0.771929
vt 0.867904 0.771929
vt 0.867904 0.771929
vt 0.867904 0.771929
vt 0.833230 0.716966
vt 0.833230 0.716966
vt 0.827525 0.519040
vt 0.827525 0.519040
vt 0.827525 0.519040
vt 0.827525 0.519040
vt 0.827525 0.519040
vt 0.827525 0.519040
vt 0.827525 0.519040
vt 0.827525 0.519040
vt 0.827525 0.519040
vt 0.827525 0.519040
vt 0.827525 0.519040
vt 0.827525 0.519040
vt 0.827525 0.519040
vt 0.827525 0.519040
vt 0.827525 0.519040
vt 0.827525 0.519040
vt 0.827525 0.519040
vt 0.827525 0.519040
vt 0.827525 0.519040
vt 0.827525 0.519040
vt 0.827525 0.519040
vt 0.827525 0.519040
vt 0.827525 0.519040
vt 0.827525 0.519040
vt 0.827525 0.519040
vt 0.867904 0.771929
vt 0.867904 0.771929
vt 0.867904 0.771929
vt 0.867904 0.771929
vt 0.867904 0.771929
vt 0.867904 0.771929
vt 0.867904 0.771929
vt 0.867904 0.771929
vt 0.867904 0.771929
vt 0.867904 0.771929
vt 0.867904 0.771929
vt 0.867904 0.771929
vt 0.867904 0.771929
vt 0.867904 0.771929
vt 0.867904 0.771929
vt 0.867904 0.771929
vt 0.827525 0.519040
vt 0.827525 0.519040
s 1
f 33/49/1 42/59/2 41/57/2 34/50/1
f 34/50/3 41/57/4 43/61/4 35/51/3
f 35/51/5 43/61/6 44/63/6 36/52/5
f 36/52/7 44/63/8 45/65/8 37/53/7
f 37/53/9 45/65/10 46/67/10 38/54/9
f 38/54/11 46/67/12 47/69/12 39/55/11
f 2/3/13 1/1/13 8/15/13 7/13/13 6/11/13 5/9/13 4/7/13 3/5/13
f 39/55/14 47/69/15 48/71/15 40/56/14
f 40/56/16 48/71/17 42/59/17 33/49/16
f 13/25/13 14/27/13 27/43/13 25/41/13
f 14/27/13 15/29/13 29/45/13 27/43/13
f 17/33/18 18/34/18 20/36/18 22/38/18 24/40/18 26/42/18 28/44/18 30/46/18
f 15/29/13 16/31/13 31/47/13 29/45/13
f 16/31/13 9/17/13 32/48/13 31/47/13
f 9/17/13 10/19/13 19/35/13 32/48/13
f 30/46/19 31/47/19 32/48/19 17/33/19
f 28/44/20 29/45/20 31/47/20 30/46/20
f 26/42/21 27/43/21 29/45/21 28/44/21
f 24/40/22 25/41/22 27/43/22 26/42/22
f 22/38/23 23/39/23 25/41/23 24/40/23
f 20/36/24 21/37/24 23/39/24 22/38/24
f 18/34/25 19/35/25 21/37/25 20/36/25
f 17/33/26 32/48/26 19/35/26 18/34/26
f 12/23/13 13/25/13 25/41/13 23/39/13
f 11/21/13 12/23/13 23/39/13 21/37/13
f 10/19/13 11/21/13 21/37/13 19/35/13
f 16/32/27 40/56/16 33/49/16 9/18/27
f 15/30/28 39/55/14 40/56/14 16/32/28
f 14/28/29 38/54/11 39/55/11 15/30/29
f 13/26/30 37/53/9 38/54/9 14/28/30
f 12/24/31 36/52/7 37/53/7 13/26/31
f 11/22/32 35/51/5 36/52/5 12/24/32
f 10/20/33 34/50/3 35/51/3 11/22/33
f 9/18/34 33/49/1 34/50/1 10/20/34
f 1/2/35 2/4/35 41/58/2 42/60/2
f 2/4/36 3/6/36 43/62/4 41/58/4
f 3/6/37 4/8/37 44/64/6 43/62/6
f 4/8/38 5/10/38 45/66/8 44/64/8
f 5/10/39 6/12/39 46/68/10 45/66/10
f 6/12/40 7/14/40 47/70/12 46/68/12
f 7/14/41 8/16/41 48/72/15 47/70/15
f 8/16/42 1/2/42 42/60/17 48/72/17
s 0
f 90/114/43 50/74/43 52/76/43 91/115/43
f 54/78/44 55/79/44 53/77/44
f 56/80/45 57/81/45 63/87/45 61/85/45 62/86/45
f 63/87/46 57/81/46 50/74/46 90/114/46 49/73/46 56/80/46 62/86/46 65/89/46 59/83/46 58/82/46 60/84/46 64/88/46
f 54/78/47 53/77/47 56/80/47
f 55/79/48 52/76/48 50/74/48 57/81/48
f 53/77/49 55/79/49 57/81/49
f 51/75/18 54/78/18 56/80/18 49/73/18
f 53/77/50 57/81/50 56/80/50
f 70/94/51 55/79/51 54/78/51 73/97/51 72/96/51
f 54/78/52 51/75/52 91/115/52 52/76/52 55/79/52 70/94/52 69/93/52 68/92/52 66/90/52 67/91/52 71/95/52 73/97/52
f 63/87/53 64/88/53 69/93/53 70/94/53
f 72/96/54 61/85/54 63/87/54 70/94/54
f 61/85/55 72/96/55 73/97/55 62/86/55
f 71/95/56 65/89/56 62/86/56 73/97/56
f 67/91/57 59/83/57 65/89/57 71/95/57
f 58/82/58 59/83/58 67/91/58 66/90/58
f 60/84/59 58/82/59 66/90/59 68/92/59
f 64/88/60 60/84/60 68/92/60 69/93/60
f 74/98/57 75/99/57 77/101/57 76/100/57
f 76/100/58 77/101/58 79/103/58 78/102/58
f 78/102/59 79/103/59 81/105/59 80/104/59
f 80/104/60 81/105/60 83/107/60 82/106/60
f 82/106/53 83/107/53 85/109/53 84/108/53
f 84/108/54 85/109/54 87/111/54 86/110/54
f 77/101/61 75/99/61 89/113/61 87/111/61 85/109/61 83/107/61 81/105/61 79/103/61
f 86/110/55 87/111/55 89/113/55 88/112/55
f 88/112/56 89/113/56 75/99/56 74/98/56
f 74/98/62 76/100/62 78/102/62 80/104/62 82/106/62 84/108/62 86/110/62 88/112/62
f 49/73/63 90/114/63 91/115/63 51/75/63
f 133/157/64 93/117/64 95/119/64 134/158/64
f 97/121/65 98/122/65 96/120/65
f 99/123/66 100/124/66 106/130/66 104/128/66 105/129/66
f 106/130/67 100/124/67 93/117/67 133/157/67 92/116/67 99/123/67 105/129/67 108/132/67 102/126/67 101/125/67 103/127/67 107/131/67
f 97/121/68 96/120/68 99/123/68
f 98/122/69 95/119/69 93/117/69 100/124/69
f 96/120/70 98/122/70 100/124/70
f 94/118/13 97/121/13 99/123/13 92/116/13
f 96/120/71 100/124/71 99/123/71
f 113/137/72 98/122/72 97/121/72 116/140/72 115/139/72
f 97/121/73 94/118/73 134/158/73 95/119/73 98/122/73 113/137/73 112/136/73 111/135/73 109/133/73 110/134/73 114/138/73 116/140/73
f 106/130/74 107/131/74 112/136/74 113/137/74
f 115/139/75 104/128/75 106/130/75 113/137/75
f 104/128/76 115/139/76 116/140/76 105/129/76
f 114/138/77 108/132/77 105/129/77 116/140/77
f 110/134/78 102/126/78 108/132/78 114/138/78
f 101/125/79 102/126/79 110/134/79 109/133/79
f 103/127/80 101/125/80 109/133/80 111/135/80
f 107/131/81 103/127/81 111/135/81 112/136/81
f 117/141/78 118/142/78 120/144/78 119/143/78
f 119/143/79 120/144/79 122/146/79 121/145/79
f 121/145/80 122/146/80 124/148/80 123/147/80
f 123/147/81 124/148/81 126/150/81 125/149/81
f 125/149/74 126/150/74 128/152/74 127/151/74
f 127/151/75 128/152/75 130/154/75 129/153/75
f 120/144/82 118/142/82 132/156/82 130/154/82 128/152/82 126/150/82 124/148/82 122/146/82
f 129/153/76 130/154/76 132/156/76 131/155/76
f 131/155/77 132/156/77 118/142/77 117/141/77
f 117/141/83 119/143/83 121/145/83 123/147/83 125/149/83 127/151/83 129/153/83 131/155/83
f 92/116/84 133/157/84 134/158/84 94/118/84
f 176/200/85 136/160/85 138/162/85 177/201/85
f 140/164/86 141/165/86 139/163/86
f 142/166/87 143/167/87 149/173/87 147/171/87 148/172/87
f 149/173/88 143/167/88 136/160/88 176/200/88 135/159/88 142/166/88 148/172/88 151/175/88 145/169/88 144/168/88 146/170/88 150/174/88
f 140/164/89 139/163/89 142/166/89
f 141/165/90 138/162/90 136/160/90 143/167/90
f 139/163/91 141/165/91 143/167/91
f 137/161/13 140/164/13 142/166/13 135/159/13
f 139/163/92 143/167/92 142/166/92
f 156/180/93 141/165/93 140/164/93 159/183/93 158/182/93
f 140/164/94 137/161/94 177/201/94 138/162/94 141/165/94 156/180/94 155/179/94 154/178/94 152/176/94 153/177/94 157/181/94 159/183/94
f 149/173/95 150/174/95 155/179/95 156/180/95
f 158/182/96 147/171/96 149/173/96 156/180/96
f 147/171/97 158/182/97 159/183/97 148/172/97
f 157/181/98 151/175/98 148/172/98 159/183/98
f 153/177/99 145/169/99 151/175/99 157/181/99
f 144/168/100 145/169/100 153/177/100 152/176/100
f 146/170/101 144/168/101 152/176/101 154/178/101
f 150/174/102 146/170/102 154/178/102 155/179/102
f 160/184/99 161/185/99 163/187/99 162/186/99
f 162/186/100 163/187/100 165/189/100 164/188/100
f 164/188/101 165/189/101 167/191/101 166/190/101
f 166/190/102 167/191/102 169/193/102 168/192/102
f 168/192/95 169/193/95 171/195/95 170/194/95
f 170/194/96 171/195/96 173/197/96 172/196/96
f 163/187/103 161/185/103 175/199/103 173/197/103 171/195/103 169/193/103 167/191/103 165/189/103
f 172/196/97 173/197/97 175/199/97 174/198/97
f 174/198/98 175/199/98 161/185/98 160/184/98
f 160/184/104 162/186/104 164/188/104 166/190/104 168/192/104 170/194/104 172/196/104 174/198/104
f 135/159/105 176/200/105 177/201/105 137/161/105
f 219/243/106 179/203/106 181/205/106 220/244/106
f 183/207/107 184/208/107 182/206/107
f 185/209/108 186/210/108 192/216/108 190/214/108 191/215/108
f 192/216/109 186/210/109 179/203/109 219/243/109 178/202/109 185/209/109 191/215/109 194/218/109 188/212/109 187/211/109 189/213/109 193/217/109
f 183/207/110 182/206/110 185/209/110
f 184/208/111 181/205/111 179/203/111 186/210/111
f 182/206/112 184/208/112 186/210/112
f 180/204/18 183/207/18 185/209/18 178/202/18
f 182/206/113 186/210/113 185/209/113
f 199/223/114 184/208/114 183/207/114 202/226/114 201/225/114
f 183/207/115 180/204/115 220/244/115 181/205/115 184/208/115 199/223/115 198/222/115 197/221/115 195/219/115 196/220/115 200/224/115 202/226/115
f 192/216/116 193/217/116 198/222/116 199/223/116
f 201/225/117 190/214/117 192/216/117 199/223/117
f 190/214/118 201/225/118 202/226/118 191/215/118
f 200/224/119 194/218/119 191/215/119 202/226/119
f 196/220/120 188/212/120 194/218/120 200/224/120
f 187/211/121 188/212/121 196/220/121 195/219/121
f 189/213/122 187/211/122 195/219/122 197/221/122
f 193/217/123 189/213/123 197/221/123 198/222/123
f 203/227/120 204/228/120 206/230/120 205/229/120
f 205/229/121 206/230/121 208/232/121 207/231/121
f 207/231/122 208/232/122 210/234/122 209/233/122
f 209/233/123 210/234/123 212/236/123 211/235/123
f 211/235/116 212/236/116 214/238/116 213/237/116
f 213/237/117 214/238/117 216/240/117 215/239/117
f 206/230/124 204/228/124 218/242/124 216/240/124 214/238/124 212/236/124 210/234/124 208/232/124
f 215/239/118 216/240/118 218/242/118 217/241/118
f 217/241/119 218/242/119 204/228/119 203/227/119
f 203/227/125 205/229/125 207/231/125 209/233/125 211/235/125 213/237/125 215/239/125 217/241/125
f 178/202/126 219/243/126 220/244/126 180/204/126
