# Blender 3.6.1
# www.blender.org
mtllib Stone_Mesh_3.mtl
o Cube.002
v 0.425744 1.044735 3.411069
v 0.420343 1.045987 3.416026
v 0.417030 1.041405 3.425361
v 0.426562 1.037911 3.419314
v 0.431002 1.038785 3.414054
v -0.480895 0.259278 2.387357
v -0.478274 0.252908 2.379250
v -0.485744 0.253069 2.388425
v -0.346477 0.582990 2.375889
v -0.341498 0.572080 2.371266
v -0.351572 0.575503 2.372697
v -0.352814 0.584940 2.376769
v 0.680440 -0.273327 2.118726
v 0.686075 -0.268997 2.122522
v 0.689511 -0.273802 2.125729
v 0.687797 -0.281629 2.122497
v 0.683356 -0.281812 2.118186
v 0.696828 0.919273 3.119788
v 0.692913 0.924531 3.124844
v 0.696055 0.918736 3.126710
v 0.679669 0.049986 2.299998
v 0.680197 0.042306 2.296864
v 0.674875 0.046788 2.295288
v -0.100540 1.050162 2.782695
v -0.096747 1.042888 2.778363
v -0.103439 1.039196 2.770246
v -0.107103 1.046614 2.775119
v 0.504034 -0.739131 2.070922
v 0.506666 -0.739362 2.072823
v 0.501392 -0.744730 2.074838
v 0.452062 -0.922031 2.905112
v 0.446355 -0.922921 2.908372
v 0.445431 -0.921933 2.895646
v 0.063707 -0.906943 2.285666
v 0.066052 -0.911052 2.291566
v 0.060853 -0.911437 2.293905
v 0.058596 -0.907912 2.287740
v -0.808892 0.112552 4.298346
v -0.812493 0.111577 4.291651
v -0.810901 0.101641 4.303422
v -0.807645 0.105018 4.305025
v -0.311887 0.868078 4.033825
v -0.306240 0.872312 4.030770
v -0.309452 0.878422 4.026911
v -0.315109 0.874338 4.029923
v -0.999056 -0.872224 3.994387
v -0.999393 -0.874934 3.985855
v -0.996090 -0.879577 3.992396
v -0.995132 -0.875965 4.001839
v -0.414344 -0.883705 4.524755
v -0.413271 -0.880475 4.529990
v -0.420545 -0.880653 4.528049
v -0.781589 -0.294225 4.524767
v -0.779538 -0.300689 4.527720
v -0.774947 -0.295648 4.529060
v -0.776329 -0.290510 4.526793
v -0.662850 -0.108665 2.361874
v -0.660110 -0.099137 2.359867
v -0.655529 -0.100993 2.354981
v -0.655437 -0.111698 2.354382
v -0.660144 -0.117152 2.358348
v -0.484094 -0.833087 2.322508
v -0.484585 -0.838927 2.326432
v -0.489106 -0.833902 2.325516
v -0.878182 -0.959468 2.832788
v -0.873747 -0.957875 2.822906
v -0.875703 -0.962350 2.832714
v 0.019637 -0.897544 4.419338
v 0.013375 -0.897347 4.424645
v 0.014654 -0.900972 4.419154
v 0.625428 -0.938109 3.258445
v 0.620944 -0.940428 3.253013
v 0.625311 -0.937216 3.250286
v 0.139399 -0.388166 4.410166
v 0.134471 -0.394486 4.414617
v 0.140209 -0.399123 4.411450
v 0.146812 -0.391175 4.403776
v 0.909834 -0.600334 3.459555
v 0.911356 -0.600050 3.452300
v 0.913495 -0.593392 3.455070
v 0.911487 -0.593318 3.462263
v 0.846462 0.203803 3.603031
v 0.849170 0.195210 3.603285
v 0.852809 0.196812 3.597453
v 0.849909 0.205481 3.597628
v -0.935986 0.665236 3.691381
v -0.935581 0.668355 3.693410
v -0.934952 0.674387 3.686082
v -0.581732 1.172430 3.581030
v -0.577005 1.177034 3.576871
v -0.582291 1.175408 3.574366
v -0.370155 1.279709 2.987259
v -0.361496 1.280924 2.980256
v -0.373111 1.274744 2.983030
v -0.379691 1.274470 2.989449
v -0.952644 0.495443 3.303725
v -0.946889 0.505898 3.299408
v -0.944456 0.506366 3.291914
v -0.949442 0.496765 3.294985
v -0.108733 0.263934 4.294204
v -0.103814 0.269179 4.289062
v -0.106623 0.277976 4.285192
v -0.111596 0.272011 4.290914
v -0.985918 0.197860 3.176702
v -0.989002 0.188232 3.183770
v -0.990196 0.189809 3.191381
v -0.987634 0.198891 3.185030
v 0.045604 -0.308841 1.988755
v 0.050873 -0.309991 1.987937
v 0.050366 -0.318419 1.988779
v 0.045238 -0.317691 1.989462
v 0.885526 0.080195 2.723560
v 0.884410 0.081867 2.716356
v 0.884777 0.087503 2.721134
v 0.888074 0.084881 2.729675
v -0.173581 0.824524 2.499169
v -0.168261 0.818874 2.491447
v -0.177916 0.826387 2.497577
v 0.624210 0.483887 2.445599
v 0.645106 0.461252 2.447303
v 0.649397 0.452351 2.443480
v 0.643970 0.459984 2.441895
vn -0.6247 -0.3863 0.6787
vn -0.3449 -0.2332 -0.9092
vn 0.8678 0.2236 -0.4438
vn 0.9915 -0.0265 -0.1276
vn -0.0123 -0.9999 0.0011
vn 0.4958 0.4771 0.7256
vn -0.9761 -0.0283 -0.2156
vn -0.0819 0.4178 0.9048
vn 0.7158 -0.4667 0.5194
vn 0.1562 0.4513 -0.8786
vn 0.5962 0.6415 -0.4827
vn 0.7695 -0.0530 0.6364
vn -0.8238 0.5306 -0.1996
vn 0.1577 0.1301 0.9789
vn -0.9912 -0.0302 0.1289
vn -0.7629 -0.1533 -0.6281
vn -0.4256 0.2142 -0.8792
vn 0.1768 0.9216 0.3454
vn -0.9723 0.1252 0.1975
vn -0.5318 0.5499 0.6440
vn -0.7063 0.4481 -0.5480
vn 0.8247 -0.5234 -0.2144
vn 0.1323 0.3956 -0.9088
vn -0.7971 0.3664 -0.4801
vn 0.2650 0.7214 -0.6398
vn 0.2686 -0.9452 -0.1857
vn 0.5552 0.3963 0.7313
vn -0.0342 -0.2269 -0.9733
vn 0.3416 0.8977 -0.2783
vn 0.5542 0.6593 0.5081
vn -0.6918 0.4420 -0.5710
vn -0.0009 0.3927 -0.9196
vn 0.6291 0.1372 -0.7651
vn 0.8524 0.5053 0.1344
vn 0.5258 0.3521 -0.7743
vn 0.4292 0.6259 -0.6512
vn 0.4095 -0.6447 -0.6455
vn 0.1062 -0.9907 -0.0847
vn -0.1029 -0.8578 -0.5035
vn -0.8024 0.3667 0.4708
vn 0.0454 0.5477 0.8354
vn -0.8859 -0.4140 0.2094
vn -0.1235 -0.8330 0.5393
vn -0.4926 0.2317 0.8389
vn -0.7042 0.0536 -0.7079
vn -0.3881 -0.4913 -0.7798
vn -0.6973 -0.5894 -0.4079
vn 0.4546 -0.6911 0.5619
vn 0.5489 -0.8301 -0.0987
vn 0.6330 0.1361 0.7621
vn 0.9143 -0.3411 0.2185
vn 0.7819 0.2567 0.5681
vn -0.9927 0.1200 0.0137
vn -0.4366 0.8071 0.3974
vn -0.5005 0.7145 -0.4889
vn -0.8871 0.3770 -0.2663
vn 0.3614 0.4645 0.8084
vn -0.9683 0.1480 -0.2010
vn -0.1566 -0.0803 -0.9844
vn 0.9635 0.0100 -0.2674
vn 0.4659 0.8358 -0.2906
vn 0.7362 0.6080 -0.2973
vn 0.1755 0.4702 -0.8649
vn -0.7499 0.2789 -0.5998
vn 0.3744 0.6923 -0.6168
vn 0.8998 -0.0312 -0.4351
vn 0.5849 0.8064 -0.0875
vn 0.4736 0.6269 -0.6186
vn 0.7090 0.3547 -0.6095
vn 0.6798 0.6366 0.3642
vn -0.0760 -0.7078 -0.7023
vn 0.4798 -0.8634 -0.1559
vn 0.0794 -0.9945 -0.0681
vn 0.6488 -0.1771 -0.7401
vn -0.3381 0.5013 0.7965
vn 0.3292 0.7324 0.5960
vn -0.8934 -0.0708 0.4436
vn -0.3139 -0.8882 0.3355
vn -0.2110 -0.1295 0.9689
vn -0.6008 0.3550 0.7163
vn -0.8883 -0.0283 -0.4585
vn -0.5410 -0.0912 -0.8361
vn -0.4536 -0.7182 -0.5277
vn -0.7773 -0.6281 -0.0358
vn -0.6736 0.3827 -0.6322
vn -0.1407 -0.7378 -0.6602
vn 0.3972 -0.8865 0.2374
vn 0.0990 -0.8376 0.5372
vn 0.2752 -0.9437 -0.1835
vn 0.6622 0.1951 0.7235
vn 0.7411 -0.1957 0.6422
vn 0.9175 0.0001 0.3978
vn 0.5414 -0.1158 0.8327
vn 0.6567 0.4617 0.5962
vn 0.7579 -0.6521 0.0193
vn -0.9539 0.2862 -0.0898
vn -0.7171 0.5876 0.3748
vn -0.4204 0.9073 0.0093
vn -0.7840 0.3845 -0.4874
vn -0.9234 0.1672 0.3456
vn -0.7877 0.3590 -0.5006
vn -0.1036 0.5891 -0.8014
vn -0.2028 0.7560 0.6223
vn -0.0006 0.3874 0.9219
vn 0.5523 0.4278 0.7155
vn 0.2659 0.4546 0.8501
vn 0.4434 0.3177 0.8381
vn -0.9386 0.2188 -0.2667
vn -0.9986 -0.0258 -0.0461
vn -0.9624 0.2115 0.1705
vn -0.9137 0.0901 -0.3962
vn -0.0182 0.3915 -0.9200
vn -0.2233 -0.4434 -0.8681
vn 0.2012 0.0112 -0.9795
vn -0.4621 0.0016 -0.8868
vn 0.9582 0.2672 -0.1018
vn -0.0875 0.4933 -0.8655
vn 0.5922 0.3091 -0.7441
vn 0.8890 0.3859 -0.2466
vn 0.1442 0.4609 -0.8757
vn 0.9992 0.0077 0.0396
vn 0.9638 -0.1720 -0.2035
vn 0.1759 0.9631 0.2037
vn 0.9311 0.3184 0.1781
vt 0.693319 0.960627
vt 0.693319 0.828617
vt 0.822942 0.867673
vt 0.901936 0.518548
vt 0.803376 0.566786
vt 0.803376 0.367519
vt 0.918029 0.370129
vt 0.182894 0.956608
vt 0.182901 0.863882
vt 0.243254 0.928745
vt 0.242548 0.000495
vt 0.304183 0.256331
vt 0.245891 0.252634
vt 0.205581 0.171725
vt 0.106870 0.022191
vt 0.462180 0.232039
vt 0.470445 0.110350
vt 0.573000 0.001077
vt 0.696108 0.026813
vt 0.753606 0.057200
vt 0.754273 0.263061
vt 0.694305 0.325584
vt 0.567079 0.366528
vt 0.201964 0.597876
vt 0.106870 0.641250
vt 0.106870 0.432076
vt 0.592099 0.367519
vt 0.739487 0.431982
vt 0.720597 0.601072
vt 0.592099 0.537296
vt 0.125700 0.701234
vt 0.106870 0.642241
vt 0.265903 0.669280
vt 0.265903 0.774137
vt 0.823922 0.608350
vt 0.827739 0.813440
vt 0.731755 0.808416
vt 0.731755 0.602397
vt 0.060959 0.261105
vt 0.104604 0.399119
vt 0.002025 0.441879
vt 0.886056 0.207506
vt 0.882538 0.364566
vt 0.794857 0.331533
vt 0.757428 0.206824
vt 0.462180 0.879539
vt 0.462180 0.675131
vt 0.588205 0.729115
vt 0.954020 0.002247
vt 0.970842 0.101064
vt 0.860393 0.162101
vt 0.860393 0.000495
vt 0.829351 0.648663
vt 0.902033 0.602397
vt 0.970854 0.664962
vt 0.990445 0.784990
vt 0.829122 0.784990
vt 0.286453 0.766530
vt 0.297828 0.711535
vt 0.404874 0.876649
vt 0.301084 0.859261
vt 0.390921 0.972391
vt 0.284944 0.998076
vt 0.284812 0.878085
vt 0.001860 0.862692
vt 0.001926 0.663497
vt 0.082907 0.675883
vt 0.098120 0.807690
vt 0.107018 0.429938
vt 0.287521 0.402099
vt 0.285186 0.529355
vt 0.203024 0.597194
vt 0.406680 0.877094
vt 0.299176 0.711193
vt 0.456870 0.680278
vt 0.456870 0.840967
vt 0.125816 0.702441
vt 0.265524 0.775360
vt 0.201579 0.860236
vt 0.115354 0.808107
vt 0.305173 0.545465
vt 0.404629 0.394274
vt 0.456869 0.547989
vt 0.447317 0.676720
vt 0.373618 0.657455
vt 0.305173 0.679288
vt 0.461189 0.126322
vt 0.390337 0.270118
vt 0.305173 0.251822
vt 0.382915 0.000495
vt 0.457371 0.061413
vt 0.175214 0.401108
vt 0.106870 0.381767
vt 0.177412 0.259844
vt 0.245275 0.253878
vt 0.303659 0.257520
vt 0.722001 0.601406
vt 0.740746 0.432835
vt 0.786672 0.400475
vt 0.801096 0.581004
vt 0.161973 0.986178
vt 0.106870 0.862467
vt 0.181401 0.862467
vt 0.593328 0.982752
vt 0.593496 0.829900
vt 0.691815 0.917132
vt 0.610262 0.615586
vt 0.730764 0.602397
vt 0.730641 0.800139
vt 0.592099 0.826215
vt 0.461189 0.372660
vt 0.348639 0.393283
vt 0.305341 0.253010
vt 0.390381 0.270772
vt 0.756148 0.078766
vt 0.858198 0.002919
vt 0.859386 0.185152
vt 0.782662 0.204753
vt 0.590244 0.538465
vt 0.588891 0.537863
vt 0.587746 0.536051
vt 0.589960 0.536600
vt 0.591108 0.537461
vt 0.031618 0.662506
vt 0.029631 0.662187
vt 0.031942 0.661185
vt 0.459537 0.715563
vt 0.459899 0.714046
vt 0.461021 0.715281
vt 0.460506 0.716428
vt 0.059839 0.260205
vt 0.060219 0.258952
vt 0.061656 0.258954
vt 0.062127 0.260068
vt 0.092036 0.573895
vt 0.093499 0.574017
vt 0.092963 0.574957
vt 0.244467 0.928244
vt 0.244261 0.929611
vt 0.094358 0.445272
vt 0.092838 0.445268
vt 0.092036 0.443109
vt 0.093602 0.443228
vt 0.592779 0.984193
vt 0.592099 0.983890
vt 0.095451 0.443109
vt 0.096768 0.443608
vt 0.095349 0.445065
vt 0.095349 0.570187
vt 0.095739 0.568917
vt 0.097163 0.569377
vt 0.096769 0.570632
vt 0.916119 0.260688
vt 0.914424 0.261162
vt 0.914966 0.259383
vt 0.916084 0.259477
vt 0.302777 0.506838
vt 0.304170 0.506925
vt 0.304183 0.508185
vt 0.302799 0.508119
vt 0.089916 0.579190
vt 0.089921 0.577751
vt 0.091045 0.578267
vt 0.091045 0.579857
vt 0.104503 0.583209
vt 0.105649 0.583728
vt 0.104503 0.584734
vt 0.089900 0.581080
vt 0.091045 0.580848
vt 0.090781 0.582213
vt 0.089900 0.582438
vt 0.002606 0.583531
vt 0.002547 0.584974
vt 0.001217 0.585349
vt 0.000495 0.584102
vt 0.001309 0.582903
vt 0.103112 0.565811
vt 0.102265 0.565078
vt 0.103478 0.564424
vt 0.098788 0.443109
vt 0.098788 0.444858
vt 0.098154 0.443357
vt 0.105649 0.587012
vt 0.104534 0.586223
vt 0.105649 0.585724
vt 0.290523 0.607618
vt 0.291873 0.607961
vt 0.291073 0.608870
vt 0.087192 0.586476
vt 0.087192 0.585007
vt 0.088629 0.585280
vt 0.088940 0.587140
vt 0.461098 0.600293
vt 0.461189 0.601635
vt 0.459819 0.601253
vt 0.459726 0.599903
vt 0.296825 0.403344
vt 0.295469 0.403658
vt 0.295177 0.402341
vt 0.296579 0.402099
vt 0.888281 0.363100
vt 0.889101 0.363377
vt 0.888381 0.364566
vt 0.297815 0.614271
vt 0.299101 0.614613
vt 0.298266 0.615544
vt 0.464350 0.671449
vt 0.466474 0.672223
vt 0.463828 0.672793
vt 0.462180 0.671939
vt 0.076865 0.636592
vt 0.076438 0.638240
vt 0.074917 0.638419
vt 0.075126 0.636920
vt 0.104503 0.580427
vt 0.105811 0.580710
vt 0.105879 0.582218
vt 0.104503 0.581853
vt 0.032933 0.599825
vt 0.033514 0.598419
vt 0.034975 0.598410
vt 0.034505 0.599719
vt 0.460889 0.604415
vt 0.459537 0.603916
vt 0.459870 0.602626
vt 0.461189 0.603062
vt 0.269965 0.741979
vt 0.269051 0.740785
vt 0.270321 0.740736
vt 0.271389 0.742220
vt 0.088596 0.588131
vt 0.088290 0.589622
vt 0.087192 0.588131
vt 0.271389 0.642241
vt 0.268443 0.647058
vt 0.266894 0.647897
vt 0.267595 0.646363
vt 0.000495 0.442118
vt 0.084372 0.674503
vt 0.099360 0.807484
vt 0.182392 0.862466
vt 0.790689 0.327724
vt 0.755264 0.207612
vt 0.092036 0.652123
vt 0.092036 0.575947
vt 0.093396 0.576733
vt 0.093147 0.651264
vt 0.859403 0.186477
vt 0.782730 0.205833
vt 0.692328 0.918370
vt 0.592099 0.828617
vt 0.086201 0.443109
vt 0.086201 0.603797
vt 0.084989 0.603297
vt 0.085252 0.443790
vt 0.089704 0.576760
vt 0.089704 0.443109
vt 0.091010 0.443896
vt 0.091045 0.575905
vt 0.105879 0.443109
vt 0.105879 0.579436
vt 0.104538 0.579067
vt 0.104469 0.443686
vt 0.889633 0.203485
vt 0.888281 0.203598
vt 0.031942 0.443109
vt 0.030412 0.443958
vt 0.391474 0.973730
vt 0.284812 0.999505
vt 0.102265 0.443109
vt 0.103215 0.444432
vt 0.293107 0.572660
vt 0.293107 0.402099
vt 0.294186 0.402703
vt 0.293764 0.572480
vt 0.469768 0.109457
vt 0.571820 0.000495
vt 0.291873 0.402099
vt 0.290647 0.402493
vt 0.095349 0.658256
vt 0.095349 0.571623
vt 0.096542 0.571881
vt 0.096587 0.658039
vt 0.696879 0.025635
vt 0.754273 0.056190
vt 0.296621 0.601085
vt 0.295177 0.599897
vt 0.461189 0.394274
vt 0.459753 0.395496
vt 0.462303 0.673784
vt 0.588627 0.727833
vt 0.101027 0.566937
vt 0.101037 0.659296
vt 0.099667 0.659810
vt 0.099667 0.566801
vt 0.730764 0.801401
vt 0.592361 0.827627
vt 0.828131 0.814750
vt 0.732061 0.809727
vt 0.299626 0.859447
vt 0.284812 0.766984
vt 0.201042 0.861476
vt 0.115332 0.809497
vt 0.289533 0.403048
vt 0.286426 0.529202
vt 0.080229 0.606136
vt 0.080229 0.443787
vt 0.081601 0.443109
vt 0.081422 0.604713
vt 0.788078 0.401033
vt 0.802385 0.581437
vt 0.755264 0.076773
vt 0.859403 0.000495
vt 0.082592 0.604672
vt 0.082592 0.443356
vt 0.083467 0.443109
vt 0.083998 0.604432
vt 0.462180 0.368755
vt 0.463046 0.367519
vt 0.297815 0.402099
vt 0.299174 0.402525
vt 0.099912 0.564724
vt 0.099912 0.443109
vt 0.101274 0.443659
vt 0.101242 0.564881
vt 0.076865 0.443271
vt 0.075435 0.443109
vt 0.103478 0.566801
vt 0.103415 0.681484
vt 0.102028 0.681564
vt 0.102028 0.567139
vt 0.105879 0.398724
vt 0.000495 0.862933
vt 0.000495 0.663666
vt 0.887290 0.206824
vt 0.884330 0.364205
vt 0.294186 0.574284
vt 0.294186 0.646127
vt 0.293030 0.644679
vt 0.293051 0.573651
vt 0.182392 0.958219
vt 0.087547 0.584016
vt 0.087192 0.443157
vt 0.088713 0.443109
vt 0.088713 0.578537
vt 0.079238 0.443447
vt 0.078547 0.622623
vt 0.077855 0.621355
vt 0.077855 0.443109
vt 0.001927 0.000581
vt 0.000495 0.000495
vt 0.829122 0.964226
vt 0.829122 0.785980
vt 0.949173 0.887790
vt 0.969988 0.964080
s 1
usemtl Material
f 49/1/1 52/2/1 54/3/1
f 62/4/2 60/5/2 111/6/2 37/7/2
f 121/8/3 113/9/3 21/10/3
f 80/11/4 15/12/4 22/13/4 112/14/4 84/15/4
f 67/16/5 63/17/5 36/18/5 32/19/5 72/20/5 70/21/5 50/22/5 48/23/5
f 43/24/6 102/25/6 3/26/6
f 47/27/7 105/28/7 57/29/7 65/30/7
f 41/31/8 56/32/8 103/33/8 42/34/8
f 68/35/9 71/36/9 78/37/9 76/38/9
f 13/39/10 109/40/10 10/41/10
f 18/42/11 114/43/11 120/44/11 25/45/11
f 77/46/12 81/47/12 83/48/12
f 88/49/13 91/50/13 95/51/13 97/52/13
f 51/53/14 69/54/14 75/55/14 100/56/14 55/57/14
f 96/58/15 107/59/15 39/60/15 86/61/15
f 61/62/16 64/63/16 66/64/16
f 108/65/17 59/66/17 7/67/17 11/68/17
f 2/69/18 92/70/18 90/71/18 44/72/18
f 40/73/19 106/74/19 46/75/19 53/76/19
f 38/77/20 45/78/20 89/79/20 87/80/20
f 6/81/21 98/82/21 94/83/21 27/84/21 118/85/21 12/86/21
f 31/87/22 29/88/22 16/89/22 79/90/22 73/91/22
f 9/92/23 117/93/23 122/94/23 23/95/23 14/96/23
f 58/97/24 104/98/24 99/99/24 8/100/24
f 119/101/25 116/102/25 26/103/25
f 30/104/26 33/105/26 35/106/26
f 101/107/27 74/108/27 82/109/27 4/110/27
f 34/111/28 110/112/28 17/113/28 28/114/28
f 24/115/29 93/116/29 1/117/29 19/118/29
f 1/119/30 2/120/30 3/121/30 4/122/30 5/123/30
f 6/124/31 7/125/31 8/126/31
f 9/127/32 10/128/32 11/129/32 12/130/32
f 13/39/33 14/131/33 15/132/33 16/133/33 17/134/33
f 18/135/34 19/136/34 20/137/34
f 21/10/35 22/138/35 23/139/35
f 24/140/36 25/141/36 26/142/36 27/143/36
f 28/144/37 29/145/37 30/104/37
f 31/146/38 32/147/38 33/148/38
f 34/149/39 35/150/39 36/151/39 37/152/39
f 38/153/40 39/154/40 40/155/40 41/156/40
f 42/157/41 43/158/41 44/159/41 45/160/41
f 46/161/42 47/162/42 48/163/42 49/164/42
f 50/165/43 51/166/43 52/167/43
f 53/168/44 54/169/44 55/170/44 56/171/44
f 57/172/45 58/173/45 59/174/45 60/175/45 61/176/45
f 62/177/46 63/178/46 64/179/46
f 65/180/47 66/181/47 67/182/47
f 68/183/48 69/184/48 70/185/48
f 71/186/49 72/187/49 73/188/49
f 74/189/50 75/190/50 76/191/50 77/192/50
f 78/193/51 79/194/51 80/195/51 81/196/51
f 82/197/52 83/198/52 84/199/52 85/200/52
f 86/201/53 87/202/53 88/203/53
f 89/204/54 90/205/54 91/206/54
f 92/207/55 93/208/55 94/209/55 95/210/55
f 96/211/56 97/212/56 98/213/56 99/214/56
f 100/215/57 101/216/57 102/217/57 103/218/57
f 104/219/58 105/220/58 106/221/58 107/222/58
f 108/223/59 109/224/59 110/225/59 111/226/59
f 112/227/60 113/228/60 114/229/60 115/230/60
f 116/231/61 117/232/61 118/233/61
f 119/234/62 120/235/62 121/236/62 122/237/62
f 13/39/63 10/41/63 9/238/63 14/131/63
f 6/239/64 12/240/64 11/68/64 7/67/64
f 24/140/65 19/136/65 18/135/65 25/141/65
f 112/241/66 22/138/66 21/10/66 113/9/66
f 119/242/67 26/243/67 25/45/67 120/44/67
f 118/244/68 27/245/68 26/246/68 116/247/68
f 22/13/69 15/12/69 14/96/69 23/95/69
f 19/118/70 1/117/70 5/248/70 20/249/70
f 34/250/71 28/144/71 30/104/71 35/106/71
f 29/145/72 31/251/72 33/105/72 30/104/72
f 32/147/73 36/151/73 35/150/73 33/148/73
f 16/89/74 29/88/74 28/114/74 17/113/74
f 41/31/75 42/34/75 45/78/75 38/77/75
f 2/69/76 44/72/76 43/24/76 3/26/76
f 53/252/77 46/253/77 49/254/77 54/255/77
f 48/256/78 50/257/78 52/258/78 49/259/78
f 51/260/79 55/261/79 54/262/79 52/263/79
f 56/264/80 41/156/80 40/155/80 53/265/80
f 65/266/81 57/172/81 61/176/81 66/267/81
f 60/268/82 62/269/82 64/63/82 61/62/82
f 63/178/83 67/270/83 66/271/83 64/179/83
f 67/272/84 48/273/84 47/274/84 65/275/84
f 7/125/85 59/174/85 58/173/85 8/126/85
f 36/18/86 63/17/86 62/276/86 37/277/86
f 70/278/87 72/187/87 71/186/87 68/279/87
f 50/280/88 70/281/88 69/282/88 51/283/88
f 72/20/89 32/19/89 31/284/89 73/285/89
f 82/197/90 74/286/90 77/287/90 83/198/90
f 76/288/91 78/193/91 81/196/91 77/289/91
f 80/290/92 84/291/92 83/48/92 81/47/92
f 68/292/93 76/293/93 75/294/93 69/295/93
f 85/296/94 5/297/94 4/110/94 82/109/94
f 73/298/95 79/299/95 78/37/95 71/36/95
f 96/58/96 86/61/96 88/300/96 97/301/96
f 87/80/97 89/79/97 91/302/97 88/303/97
f 90/71/98 92/70/98 95/304/98 91/305/98
f 94/306/99 98/307/99 97/308/99 95/309/99
f 38/153/100 87/202/100 86/201/100 39/154/100
f 98/310/101 6/311/101 8/100/101 99/99/101
f 93/116/102 24/115/102 27/312/102 94/313/102
f 44/159/103 90/205/103 89/204/103 45/160/103
f 103/314/104 56/315/104 55/316/104 100/317/104
f 3/121/105 102/318/105 101/319/105 4/122/105
f 42/157/106 103/320/106 102/321/106 43/158/106
f 100/322/107 75/323/107 74/324/107 101/325/107
f 107/222/108 96/211/108 99/214/108 104/219/108
f 46/326/109 106/221/109 105/220/109 47/327/109
f 106/74/110 40/73/110 39/60/110 107/59/110
f 57/29/111 105/28/111 104/98/111 58/97/111
f 108/223/112 11/129/112 10/128/112 109/224/112
f 37/328/113 111/329/113 110/330/113 34/331/113
f 17/134/114 110/332/114 109/40/114 13/39/114
f 111/333/115 60/334/115 59/66/115 108/65/115
f 20/335/116 115/336/116 114/43/116 18/42/116
f 12/337/117 118/338/117 117/339/117 9/340/117
f 23/139/118 122/341/118 121/8/118 21/10/118
f 113/228/119 121/236/119 120/235/119 114/229/119
f 122/342/120 117/343/120 116/344/120 119/345/120
f 84/346/121 112/347/121 115/348/121 85/349/121
f 79/350/122 16/133/122 15/132/122 80/351/122
f 1/119/123 93/208/123 92/207/123 2/120/123
f 85/352/124 115/353/124 20/354/124 5/355/124
