# Blender 3.6.2
# www.blender.org
mtllib balaLP.mtl
o Cylinder
v 0.000000 -0.208729 -0.208729
v 0.000000 0.208729 -0.186041
v 0.147594 -0.208729 -0.147594
v 0.131551 0.208729 -0.131551
v 0.208729 -0.208729 0.000000
v 0.186041 0.208729 -0.000000
v 0.147594 -0.208729 0.147594
v 0.131551 0.208729 0.131551
v 0.000000 -0.208729 0.208729
v 0.000000 0.208729 0.186041
v -0.147594 -0.208729 0.147594
v -0.131551 0.208729 0.131551
v -0.208729 -0.208729 0.000000
v -0.186041 0.208729 -0.000000
v -0.147594 -0.208729 -0.147594
v -0.131551 0.208729 -0.131551
v 0.147594 0.208729 -0.147594
v 0.000000 0.208729 -0.208729
v 0.208729 0.208729 0.000000
v 0.147594 0.208729 0.147594
v 0.000000 0.208729 0.208729
v -0.147594 0.208729 0.147594
v -0.208729 0.208729 0.000000
v -0.147594 0.208729 -0.147594
v -0.000000 -0.226687 -0.235215
v 0.166322 -0.226687 -0.166322
v 0.235215 -0.226687 0.000000
v 0.166322 -0.226687 0.166322
v -0.000000 -0.226687 0.235215
v -0.166322 -0.226687 0.166322
v -0.235215 -0.226687 0.000000
v -0.166322 -0.226687 -0.166322
v -0.000000 -0.294784 -0.235215
v 0.166322 -0.294784 -0.166322
v 0.235215 -0.294784 0.000000
v 0.166322 -0.294784 0.166322
v -0.000000 -0.294784 0.235215
v -0.166322 -0.294784 0.166322
v -0.235215 -0.294784 0.000000
v -0.166322 -0.294784 -0.166322
v 0.119166 0.389170 -0.119166
v 0.000000 0.389170 -0.168526
v 0.168526 0.389170 -0.000000
v 0.119166 0.389170 0.119166
v 0.000000 0.389170 0.168526
v -0.119166 0.389170 0.119166
v -0.168526 0.389170 -0.000000
v -0.119166 0.389170 -0.119166
v 0.063550 0.474123 -0.063550
v -0.000000 0.474123 -0.089873
v 0.089873 0.474123 0.000000
v 0.063550 0.474123 0.063550
v -0.000000 0.474123 0.089873
v -0.063550 0.474123 0.063550
v -0.089873 0.474123 0.000000
v -0.063550 0.474123 -0.063550
vn 0.3827 -0.0000 -0.9239
vn 0.9239 -0.0000 -0.3827
vn 0.9239 -0.0000 0.3827
vn 0.3827 -0.0000 0.9239
vn -0.3827 -0.0000 0.9239
vn -0.9239 -0.0000 0.3827
vn -0.3812 0.0893 -0.9202
vn -0.9239 -0.0000 -0.3827
vn -0.3827 -0.0000 -0.9239
vn -0.0000 1.0000 -0.0000
vn -0.5466 0.8062 -0.2264
vn 0.2264 0.8062 0.5466
vn -0.5466 0.8062 0.2264
vn 0.5466 0.8062 0.2264
vn 0.2264 0.8062 -0.5466
vn -0.2264 0.8062 -0.5466
vn -0.2264 0.8062 0.5466
vn 0.5466 0.8062 -0.2264
vn -0.0000 -1.0000 -0.0000
vn 0.2908 0.6500 0.7021
vn -0.9202 0.0893 0.3812
vn 0.3812 0.0893 0.9202
vn 0.9202 0.0893 -0.3812
vn -0.9202 0.0893 -0.3812
vn -0.3812 0.0893 0.9202
vn 0.9202 0.0893 0.3812
vn 0.3812 0.0893 -0.9202
vn 0.7021 0.6500 -0.2908
vn -0.7021 0.6500 -0.2908
vn -0.2908 0.6500 0.7021
vn 0.7021 0.6500 0.2908
vn 0.2908 0.6500 -0.7021
vn -0.2908 0.6500 -0.7021
vn -0.7021 0.6500 0.2908
vt 0.643079 0.851119
vt 0.544719 0.982971
vt 0.504183 0.940067
vt 0.591629 0.802643
vt 0.459463 0.915612
vt 0.526505 0.764679
vt 0.410605 0.900727
vt 0.450789 0.737710
vt 0.359297 0.894770
vt 0.371498 0.720500
vt 0.306519 0.898089
vt 0.290331 0.720592
vt 0.253691 0.911177
vt 0.206903 0.733953
vt 0.347705 0.098744
vt 0.451185 0.104805
vt 0.431350 0.216314
vt 0.359341 0.216290
vt 0.202003 0.935660
vt 0.125784 0.762775
vt 0.150792 0.981720
vt 0.051780 0.806833
vt 0.536609 0.986057
vt 0.499237 0.946443
vt 0.456779 0.922022
vt 0.408947 0.908723
vt 0.359130 0.901912
vt 0.307833 0.906516
vt 0.256279 0.918321
vt 0.207145 0.943290
vt 0.159965 0.986057
vt 0.118570 0.747320
vt 0.203344 0.718455
vt 0.372889 0.707093
vt 0.455269 0.721804
vt 0.289530 0.705251
vt 0.533051 0.751702
vt 0.599619 0.792337
vt 0.654475 0.845305
vt 0.039761 0.796815
vt 0.463730 0.688967
vt 0.546767 0.721925
vt 0.813360 0.774761
vt 0.903554 0.774761
vt 0.967331 0.838538
vt 0.967331 0.928732
vt 0.903554 0.992508
vt 0.813360 0.992508
vt 0.749584 0.928732
vt 0.749584 0.838538
vt 0.193720 0.683887
vt 0.286348 0.670662
vt 0.375673 0.673018
vt 0.103004 0.715919
vt 0.617874 0.766871
vt 0.020908 0.765761
vt 0.677374 0.821834
vt 0.128416 0.403986
vt 0.169066 0.325229
vt 0.235564 0.369677
vt 0.216414 0.418285
vt 0.549599 0.135204
vt 0.634665 0.191182
vt 0.561340 0.281401
vt 0.499619 0.241043
vt 0.012964 0.334097
vt 0.075700 0.245826
vt 0.152632 0.172478
vt 0.246871 0.123624
vt 0.288637 0.231280
vt 0.224523 0.269853
vt 0.707627 0.263020
vt 0.611512 0.347166
vt 0.902290 0.312413
vt 0.847901 0.312413
vt 0.809441 0.273953
vt 0.809441 0.219563
vt 0.847901 0.181104
vt 0.902290 0.181104
vt 0.940750 0.219564
vt 0.940750 0.273953
vt 0.318269 0.303838
vt 0.274459 0.333194
vt 0.466335 0.307905
vt 0.417017 0.294626
vt 0.535491 0.373902
vt 0.508410 0.334417
vt 0.366455 0.289204
s 0
usemtl Material
f 1/1/1 18/2/1 17/3/1 3/4/1
f 3/4/2 17/3/2 19/5/2 5/6/2
f 5/6/3 19/5/3 20/7/3 7/8/3
f 7/8/4 20/7/4 21/9/4 9/10/4
f 9/10/5 21/9/5 22/11/5 11/12/5
f 11/12/6 22/11/6 23/13/6 13/14/6
f 2/15/7 16/16/7 48/17/7 42/18/7
f 13/14/8 23/13/8 24/19/8 15/20/8
f 15/20/9 24/19/9 18/21/9 1/22/9
f 2/23/10 4/24/10 17/3/10 18/2/10
f 4/24/10 6/25/10 19/5/10 17/3/10
f 6/25/10 8/26/10 20/7/10 19/5/10
f 8/26/10 10/27/10 21/9/10 20/7/10
f 10/27/10 12/28/10 22/11/10 21/9/10
f 12/28/10 14/29/10 23/13/10 22/11/10
f 14/29/10 16/30/10 24/19/10 23/13/10
f 16/30/10 2/31/10 18/21/10 24/19/10
f 13/14/11 15/20/11 32/32/11 31/33/11
f 7/8/12 9/10/12 29/34/12 28/35/12
f 11/12/13 13/14/13 31/33/13 30/36/13
f 5/6/14 7/8/14 28/35/14 27/37/14
f 1/1/15 3/4/15 26/38/15 25/39/15
f 15/20/16 1/22/16 25/40/16 32/32/16
f 9/10/17 11/12/17 30/36/17 29/34/17
f 3/4/18 5/6/18 27/37/18 26/38/18
f 27/37/3 28/35/3 36/41/3 35/42/3
f 33/43/19 34/44/19 35/45/19 36/46/19 37/47/19 38/48/19 39/49/19 40/50/19
f 30/36/6 31/33/6 39/51/6 38/52/6
f 28/35/4 29/34/4 37/53/4 36/41/4
f 31/33/8 32/32/8 40/54/8 39/51/8
f 26/38/2 27/37/2 35/42/2 34/55/2
f 29/34/5 30/36/5 38/52/5 37/53/5
f 32/32/9 25/40/9 33/56/9 40/54/9
f 25/39/1 26/38/1 34/55/1 33/57/1
f 45/58/20 44/59/20 52/60/20 53/61/20
f 14/62/21 12/63/21 46/64/21 47/65/21
f 10/66/22 8/67/22 44/59/22 45/58/22
f 6/68/23 4/69/23 41/70/23 43/71/23
f 16/16/24 14/62/24 47/65/24 48/17/24
f 12/63/25 10/72/25 45/73/25 46/64/25
f 8/67/26 6/68/26 43/71/26 44/59/26
f 4/69/27 2/15/27 42/18/27 41/70/27
f 49/74/10 50/75/10 56/76/10 55/77/10 54/78/10 53/79/10 52/80/10 51/81/10
f 43/71/28 41/70/28 49/82/28 51/83/28
f 48/17/29 47/65/29 55/84/29 56/85/29
f 46/64/30 45/73/30 53/86/30 54/87/30
f 44/59/31 43/71/31 51/83/31 52/60/31
f 41/70/32 42/18/32 50/88/32 49/82/32
f 42/18/33 48/17/33 56/85/33 50/88/33
f 47/65/34 46/64/34 54/87/34 55/84/34
